<?xml version="1.0" standalone="no"?>
<!DOCTYPE svg PUBLIC "-//W3C//DTD SVG 20010904//EN"
 "http://www.w3.org/TR/2001/REC-SVG-20010904/DTD/svg10.dtd">
<svg version="1.0" xmlns="http://www.w3.org/2000/svg"
 width="720.000000pt" height="576.000000pt" viewBox="0 0 720.000000 576.000000"
 preserveAspectRatio="xMidYMid meet">

<g transform="translate(0.000000,576.000000) scale(0.100000,-0.100000)"
fill="#000000" stroke="none">
<path d="M3481 5577 c-128 -332 -258 -540 -395 -629 -72 -46 -121 -60 -204
-59 -157 2 -327 83 -632 299 -12 9 2 -28 41 -104 114 -225 121 -330 24 -348
-109 -21 -414 85 -854 295 -79 38 -145 68 -147 66 -1 -1 25 -38 58 -82 202
-269 277 -445 235 -547 -30 -71 -119 -116 -277 -138 -81 -12 -347 -14 -500 -5
l-95 6 97 -53 c231 -126 299 -208 234 -285 -72 -85 -350 -173 -759 -239 -59
-9 -104 -20 -100 -24 4 -4 51 -24 103 -45 144 -57 319 -149 394 -206 138 -104
160 -199 68 -293 -57 -60 -91 -83 -223 -151 l-123 -63 45 -11 c204 -52 498
-162 599 -225 l54 -34 -36 -17 c-34 -17 -38 -17 -92 4 -151 56 -304 0 -380
-139 -36 -66 -45 -161 -22 -234 13 -42 13 -53 2 -75 -21 -39 -35 -99 -42 -174
l-6 -67 71 0 71 0 0 50 c0 48 30 154 49 173 7 7 91 -26 91 -36 0 -1 -9 -26
-20 -55 -11 -29 -20 -70 -20 -92 l0 -40 719 0 c648 0 719 2 725 16 8 20 11 14
-103 163 -75 98 -215 302 -346 504 -9 13 -26 10 -136 -24 -166 -50 -319 -111
-448 -176 -57 -30 -104 -52 -105 -51 -1 2 -11 22 -23 45 l-21 43 81 44 c114
62 256 120 432 178 83 27 151 51 152 52 2 2 -22 51 -53 110 -75 144 -184 398
-184 430 0 3 24 6 53 6 l52 -1 33 -87 c37 -95 173 -374 200 -409 17 -21 19
-22 77 -8 178 43 447 90 683 120 28 4 52 10 52 14 0 65 69 478 109 656 16 71
27 133 25 137 -3 4 -51 32 -107 62 -369 197 -700 287 -899 245 -140 -30 -228
-127 -244 -269 -6 -51 -9 -57 -38 -66 -17 -6 -40 -15 -50 -19 -18 -8 -19 -4
-13 66 13 183 101 311 254 370 81 31 254 38 378 14 177 -33 433 -129 643 -241
57 -31 105 -54 107 -52 2 2 26 71 53 153 115 349 235 572 392 725 51 50 99 87
146 110 65 33 75 35 169 35 88 0 107 -3 159 -28 33 -15 79 -44 103 -63 l44
-36 -40 -29 -40 -28 -57 34 c-32 20 -74 40 -94 45 -265 74 -533 -270 -723
-926 l-15 -52 166 -108 c92 -60 241 -164 331 -231 90 -68 166 -123 169 -123 3
0 66 46 141 103 130 98 485 340 512 349 19 6 -45 218 -122 407 -33 80 -62 153
-65 161 -2 9 12 26 36 42 l40 28 24 -48 c39 -77 132 -320 162 -422 15 -52 28
-96 30 -98 1 -2 84 37 185 87 316 154 492 209 705 218 117 5 139 3 204 -16 90
-28 133 -55 193 -120 90 -101 122 -251 95 -443 -16 -108 -61 -284 -77 -301 -4
-4 -21 -1 -37 8 -16 8 -35 15 -43 15 -8 0 -11 7 -8 18 80 271 92 422 46 548
-98 265 -479 256 -1041 -23 -183 -91 -190 -96 -185 -121 2 -15 21 -105 41
-201 20 -96 49 -264 65 -373 16 -110 30 -201 32 -203 2 -2 74 -13 159 -25 190
-26 391 -63 529 -96 83 -19 106 -22 113 -12 5 7 22 39 39 71 16 31 30 57 32
57 1 0 23 -11 49 -24 l46 -23 -33 -61 -34 -60 87 -27 c373 -114 643 -256 798
-416 39 -41 82 -94 97 -119 36 -63 60 -154 53 -196 l-7 -34 59 0 c58 0 60 1
65 30 8 36 -5 110 -28 164 -45 106 -194 267 -332 359 -68 45 -73 51 -99 120
-61 158 -68 245 -28 325 85 171 374 293 858 363 110 16 92 24 -74 33 -546 31
-837 174 -805 395 20 137 158 305 383 466 29 20 52 39 50 40 -3 3 -35 5 -398
26 -304 17 -451 42 -528 89 -41 25 -66 80 -56 124 17 79 110 220 244 370 34
37 60 70 58 71 -2 2 -80 -25 -174 -60 -331 -124 -536 -177 -689 -179 -87 -1
-105 2 -136 21 -19 12 -41 35 -48 50 -31 68 -5 223 68 399 22 54 39 99 38 100
-1 2 -63 -38 -137 -88 -164 -110 -346 -201 -460 -229 -242 -61 -400 34 -548
329 -37 75 -88 197 -112 270 -25 72 -47 132 -50 132 -3 0 -30 -64 -59 -143z
m94 -104 c85 -223 200 -405 302 -476 109 -78 252 -98 403 -56 90 24 245 97
355 165 44 28 85 54 92 57 7 5 2 -21 -12 -62 -37 -110 -50 -209 -35 -271 46
-191 267 -198 777 -26 l162 54 -55 -71 c-65 -86 -123 -198 -131 -254 -18 -134
93 -210 352 -243 91 -11 336 -29 448 -32 48 -1 87 -6 87 -10 0 -4 -4 -8 -9 -8
-17 0 -193 -175 -236 -235 -161 -225 -115 -419 127 -535 82 -40 293 -100 348
-100 43 0 45 -17 4 -25 -56 -10 -207 -61 -271 -91 -142 -66 -255 -172 -294
-272 -39 -103 -37 -198 6 -304 5 -12 -22 -5 -107 31 -62 27 -151 60 -197 76
l-83 27 43 20 c84 37 129 105 150 222 17 101 -3 183 -60 243 -21 22 -21 25 -6
81 47 182 66 418 44 561 -25 172 -164 301 -362 336 -230 40 -590 -39 -930
-204 l-117 -57 -11 40 c-24 93 -80 249 -112 313 -34 67 -34 69 -22 128 42 202
-67 365 -250 369 -54 2 -67 7 -131 49 -184 124 -383 130 -552 17 -81 -54 -227
-209 -297 -315 -76 -116 -164 -301 -216 -455 -23 -69 -43 -126 -44 -127 0 -1
-62 28 -137 66 -75 37 -192 86 -260 109 -394 131 -680 114 -853 -49 -97 -91
-148 -196 -161 -328 -5 -49 -12 -72 -30 -91 -38 -41 -57 -99 -57 -175 -1 -107
25 -178 91 -244 42 -42 59 -69 79 -125 14 -39 53 -130 88 -202 l62 -132 -136
-47 c-75 -26 -147 -47 -161 -47 -14 0 -77 20 -140 45 -64 25 -212 75 -329 110
l-214 64 61 33 c79 42 169 115 206 167 40 58 47 134 17 197 -44 89 -183 194
-376 282 -47 22 -85 42 -85 45 0 3 44 14 97 24 248 46 458 113 551 175 143 96
126 208 -52 335 l-28 20 160 1 c221 2 350 27 442 85 67 42 94 88 98 168 6 102
-41 222 -150 384 -21 31 -37 57 -34 57 2 0 53 -23 112 -51 147 -68 411 -172
509 -200 52 -14 110 -22 165 -23 73 -1 89 2 117 22 60 42 65 119 17 252 -13
35 -22 65 -21 66 1 1 36 -18 77 -43 335 -200 557 -199 752 5 105 110 215 301
299 520 13 34 25 62 25 62 1 0 19 -44 39 -97z m467 -748 c74 -49 98 -147 57
-232 -51 -106 -184 -130 -276 -50 -65 57 -80 135 -42 214 47 97 169 129 261
68z m-2404 -1037 c102 -68 102 -228 0 -295 -54 -36 -124 -42 -180 -14 -135 65
-138 253 -6 320 57 29 131 25 186 -11z m3937 -407 c72 -33 105 -86 105 -168 0
-159 -210 -236 -312 -115 -78 93 -52 228 54 281 53 26 100 27 153 2z m-4594
-736 c99 -51 120 -204 40 -284 -73 -73 -173 -76 -250 -5 -154 138 24 384 210
289z"/>
<path d="M2837 3578 c-31 -144 -82 -443 -92 -542 -7 -64 -6 -68 11 -63 11 3
105 11 209 18 l190 12 158 136 c86 74 157 138 157 141 0 19 -573 420 -600 420
-4 0 -19 -55 -33 -122z"/>
<path d="M4059 3582 c-163 -109 -402 -283 -413 -300 -3 -4 23 -30 57 -57 33
-28 104 -89 157 -136 l96 -86 129 -7 c71 -4 165 -11 210 -16 44 -4 81 -7 83
-5 6 5 -39 294 -73 470 -38 198 -52 255 -63 255 -4 0 -86 -53 -183 -118z"/>
<path d="M3479 3148 c-41 -34 -93 -79 -116 -100 l-43 -38 235 0 c129 0 235 2
235 4 0 5 -226 196 -232 196 -2 0 -38 -28 -79 -62z"/>
<path d="M3274 2903 l-81 -4 -164 -158 c-90 -87 -203 -201 -251 -253 l-87 -95
-7 -196 -7 -197 883 0 882 0 -6 23 c-3 12 -6 100 -6 196 l0 174 -250 251 -249
251 -98 6 c-99 7 -411 8 -559 2z m279 -424 c47 -25 48 -55 5 -104 -58 -66
-168 -106 -233 -85 -41 13 -51 39 -31 77 43 83 192 147 259 112z m-300 -227
c-3 -68 -103 -130 -103 -64 0 47 49 104 85 99 16 -2 20 -9 18 -35z"/>
<path d="M2945 2885 c-5 -2 -58 -7 -116 -10 l-106 -7 -12 -150 c-7 -82 -11
-151 -9 -153 2 -3 78 70 168 160 l165 165 -40 -1 c-22 0 -44 -2 -50 -4z"/>
<path d="M4250 2722 c91 -92 166 -167 166 -167 3 0 -15 229 -21 271 l-6 41
-137 11 c-76 7 -145 12 -153 12 -8 0 60 -75 151 -168z"/>
<path d="M2425 2829 c-136 -21 -526 -96 -533 -104 -13 -13 395 -602 419 -604
3 -1 48 50 101 112 53 61 114 132 135 157 l39 45 13 190 c7 105 14 198 17 208
7 22 -19 22 -191 -4z"/>
<path d="M4504 2793 c3 -32 10 -127 16 -211 l11 -153 107 -121 c59 -67 121
-137 138 -156 l30 -34 75 98 c132 174 355 501 346 510 -13 14 -639 123 -706
124 -23 0 -23 -2 -17 -57z"/>
<path d="M5269 2589 c-72 -118 -207 -309 -321 -457 -65 -84 -77 -106 -68 -118
11 -12 117 -14 732 -14 l720 0 -7 53 c-30 234 -326 441 -873 611 -46 14 -91
26 -102 26 -12 0 -38 -32 -81 -101z"/>
<path d="M2515 2197 c-127 -151 -138 -166 -125 -182 9 -11 35 -15 101 -15 l89
0 0 135 c0 74 -1 135 -2 134 -2 0 -30 -32 -63 -72z"/>
<path d="M4535 2135 l0 -135 91 0 c136 0 136 3 14 149 -56 67 -102 121 -103
121 -1 0 -2 -61 -2 -135z"/>
<path d="M420 1895 c-130 -19 -132 -21 -35 -31 103 -10 6233 -13 6280 -2 17 3
50 7 75 7 76 2 30 18 -85 30 -165 17 -6117 13 -6235 -4z"/>
<path d="M2237 1766 c-143 -39 -224 -187 -172 -314 32 -75 95 -116 236 -152
97 -25 107 -30 86 -41 -32 -18 -147 17 -206 62 -13 11 -27 19 -31 19 -8 0
-140 -156 -140 -166 0 -21 117 -92 190 -115 81 -25 221 -27 289 -4 65 21 119
69 147 129 l24 51 0 -95 0 -95 123 1 122 0 3 122 3 122 79 0 80 0 0 -119 0
-120 121 -3 c66 -2 123 -1 125 1 2 2 4 166 4 363 l0 358 -125 0 -125 0 0 -125
0 -125 -80 0 -80 0 0 125 0 125 -125 0 -125 0 -1 -217 c-1 -186 -3 -214 -13
-189 -16 35 -71 93 -97 101 -10 4 -19 10 -19 16 0 5 27 47 61 95 70 98 70 99
-21 148 -92 50 -235 68 -333 42z m260 -46 c46 -16 113 -55 113 -65 0 -2 -21
-33 -46 -69 l-45 -66 -52 27 c-91 48 -211 42 -191 -10 7 -18 33 -29 141 -57
45 -12 103 -35 128 -51 128 -81 106 -268 -40 -339 -94 -46 -266 -33 -376 27
-86 46 -87 51 -29 121 l50 60 68 -34 c88 -46 170 -56 201 -25 39 39 19 53
-122 91 -161 42 -217 95 -217 203 1 77 56 160 125 188 82 32 198 32 292 -1z
m381 -107 l3 -123 109 0 110 0 0 125 0 125 95 0 95 0 0 -335 0 -335 -95 0 -95
0 0 125 0 125 -110 0 -110 0 0 -125 0 -125 -95 0 -95 0 0 335 0 336 93 -3 92
-3 3 -122z m-467 -68 c24 -9 55 -24 69 -35 23 -18 18 -18 -68 5 -51 14 -95 25
-98 25 -2 0 -4 5 -4 10 0 15 50 12 101 -5z"/>
<path d="M3360 1410 c0 -281 3 -360 13 -360 6 -1 62 -1 122 -2 l110 -1 5 359
5 359 145 -363 145 -362 109 2 109 3 144 355 c78 195 143 358 143 363 0 4 -61
6 -136 5 l-136 -3 -58 -164 c-33 -90 -60 -165 -62 -167 -2 -2 -31 72 -64 164
l-60 167 -267 3 -267 2 0 -360z m220 -5 l0 -335 -95 0 -95 0 0 328 c0 181 3
332 7 335 3 4 46 7 95 7 l88 0 0 -335z m363 132 c41 -117 73 -193 78 -185 4 7
37 97 74 200 l67 186 105 0 c57 1 103 -3 101 -8 -2 -4 -61 -155 -133 -334
l-130 -326 -90 0 -90 0 -127 318 c-70 174 -130 324 -133 332 -5 14 9 16 101
15 l107 0 70 -198z"/>
<path d="M4457 1738 c-230 -543 -287 -681 -284 -685 3 -2 61 -5 131 -6 l126
-2 23 58 22 57 102 0 102 0 28 -57 28 -58 85 2 c47 1 106 2 131 3 l47 0 -152
360 -151 360 -112 0 -113 0 -13 -32z m349 -313 c72 -170 134 -320 138 -333 l8
-23 -102 3 -102 3 -22 55 -22 55 -124 0 -124 0 -22 -55 -22 -55 -101 -3 c-56
-1 -101 -1 -101 2 0 2 9 26 21 53 30 70 239 564 250 591 8 22 13 23 101 20
l93 -3 131 -310z"/>
<path d="M4547 1422 c-15 -37 -27 -71 -27 -75 0 -4 27 -7 60 -7 33 0 60 3 60
7 0 16 -54 143 -60 143 -4 0 -19 -30 -33 -68z m52 -44 c1 -5 -8 -8 -19 -8 -23
0 -24 4 -8 33 11 21 11 21 19 2 4 -11 8 -23 8 -27z"/>
<path d="M2055 991 c-87 -14 -152 -73 -180 -163 -14 -43 -14 -42 -14 55 l-1
97 -285 0 -285 0 0 -175 0 -175 75 0 74 0 4 88 c1 48 4 -49 5 -215 l2 -303
-25 0 c-24 0 -25 -2 -25 -65 l0 -65 175 0 175 0 0 65 c0 63 -1 65 -25 65 l-25
0 2 303 c1 166 4 263 5 215 l4 -88 74 0 74 0 0 -168 c0 -196 11 -257 54 -315
49 -64 112 -91 212 -90 87 0 127 14 178 62 73 67 91 167 85 469 -5 222 -13
262 -63 328 -46 60 -161 92 -270 75z m180 -50 c51 -23 80 -55 102 -111 14 -37
18 -84 20 -275 2 -245 -4 -304 -40 -375 -55 -107 -248 -137 -347 -53 -75 62
-94 169 -86 459 7 254 29 316 126 358 51 22 175 20 225 -3z m-405 -137 l0
-144 -45 0 -45 0 0 68 c0 73 -13 107 -48 130 l-22 15 2 -349 3 -349 23 -3 c18
-3 22 -10 22 -43 l0 -39 -145 0 -145 0 0 40 c0 34 3 40 20 40 11 0 23 6 25 13
3 6 4 164 3 350 l-3 339 -27 -22 c-27 -20 -28 -26 -28 -106 l0 -84 -50 0 -50
0 0 138 c0 76 2 141 5 144 3 2 117 5 255 5 l250 0 0 -143z"/>
<path d="M2027 935 c-52 -18 -83 -49 -104 -104 -16 -40 -18 -81 -18 -306 0
-279 4 -309 52 -366 30 -36 65 -54 116 -62 35 -5 37 -4 37 20 0 15 -10 33 -25
45 l-25 19 0 339 0 339 25 27 c51 55 24 79 -58 49z"/>
<path d="M2140 924 c0 -15 10 -34 23 -44 22 -18 22 -20 25 -338 2 -266 0 -327
-12 -356 -8 -20 -20 -36 -25 -36 -6 0 -11 -13 -11 -29 0 -22 4 -28 18 -26 9 2
29 6 45 10 47 10 105 71 122 128 22 73 22 511 0 584 -18 59 -65 106 -122 122
-55 16 -63 14 -63 -15z"/>
<path d="M2090 870 c-19 -19 -20 -33 -20 -341 0 -199 4 -328 10 -339 18 -34
45 -42 69 -19 21 19 21 25 21 349 0 317 -1 331 -20 350 -11 11 -24 20 -30 20
-5 0 -19 -9 -30 -20z m48 -340 c2 -317 -2 -371 -28 -330 -11 17 -14 643 -3
654 24 24 28 -16 31 -324z"/>
<path d="M1340 800 l0 -130 30 0 30 0 0 76 c0 74 1 77 35 111 19 19 35 44 35
54 0 17 -8 19 -65 19 l-65 0 0 -130z"/>
<path d="M1500 564 c0 -233 -4 -372 -10 -385 -6 -10 -20 -19 -30 -19 -15 0
-20 -7 -20 -25 l0 -25 135 0 135 0 0 25 c0 18 -5 25 -20 25 -10 0 -24 9 -30
19 -6 13 -10 152 -10 385 l0 366 -75 0 -75 0 0 -366z"/>
<path d="M1690 906 c0 -14 8 -31 18 -38 32 -22 42 -54 42 -127 l0 -71 35 0 35
0 0 130 0 130 -65 0 c-62 0 -65 -1 -65 -24z"/>
<path d="M4940 989 c-118 -13 -176 -74 -200 -212 -11 -58 -9 -465 2 -547 2
-16 -2 -25 -13 -28 -24 -4 -30 30 -28 159 1 101 -1 113 -24 147 l-25 38 20 38
c17 34 20 55 17 156 -4 107 -6 120 -31 158 -53 80 -31 77 -585 80 l-493 3 0
-176 0 -175 75 0 74 0 4 93 c1 50 4 -46 5 -215 l2 -308 -25 0 c-24 0 -25 -2
-25 -65 l0 -65 175 0 175 0 0 64 c0 63 -1 65 -27 68 l-28 3 -2 304 c-1 167 0
301 3 298 9 -9 12 -38 13 -109 l1 -68 75 0 75 0 0 105 0 105 25 0 25 0 0 -319
0 -320 -27 -3 c-26 -3 -27 -4 -24 -63 1 -33 4 -61 5 -62 1 -1 65 -3 141 -4
l140 -1 3 202 c2 154 5 201 15 197 8 -2 13 -47 17 -153 5 -136 7 -152 28 -182
37 -51 72 -64 170 -63 47 1 88 3 91 6 3 3 5 26 4 51 l-2 46 38 -41 c51 -56 99
-74 197 -74 66 -1 89 3 130 23 60 31 108 97 124 175 13 62 10 539 -4 568 -7
14 -3 17 18 17 48 0 52 -26 46 -345 l-5 -290 -32 -3 -33 -3 0 -65 0 -64 110 0
c61 0 113 0 118 0 4 0 9 75 12 167 l5 166 71 -164 71 -164 83 0 83 0 -2 115
c-1 63 -2 124 -2 135 0 11 2 130 3 265 3 214 5 245 19 248 13 2 16 -10 16 -85
0 -110 10 -134 105 -249 104 -125 103 -115 11 -113 -125 3 -113 13 -113 -99 0
-127 21 -175 94 -211 40 -20 64 -24 135 -24 107 0 150 14 195 63 41 46 51 86
50 195 -1 97 -14 126 -113 245 -67 80 -70 85 -49 93 12 4 46 7 75 6 29 -1 56
1 60 5 4 3 6 53 4 109 -2 88 -5 107 -26 138 -35 54 -96 80 -188 80 -89 1 -149
-21 -190 -70 l-27 -33 0 46 0 46 -110 0 -109 0 -3 -151 -3 -152 -66 149 -65
149 -127 3 c-140 3 -131 8 -127 -65 2 -42 -8 -42 -43 2 -15 19 -42 42 -59 51
-41 21 -127 31 -198 23z m176 -48 c48 -22 81 -64 100 -128 21 -71 20 -510 -2
-583 -29 -99 -104 -150 -220 -150 -101 0 -164 37 -203 119 l-26 56 0 265 c0
229 2 271 18 311 20 52 71 106 113 119 54 16 176 11 220 -9z m1070 -7 c58 -43
69 -68 69 -162 l0 -87 -77 -3 -78 -3 0 84 c0 89 -13 123 -42 112 -30 -12 -41
-85 -23 -162 3 -13 50 -76 104 -142 132 -158 136 -166 136 -276 0 -164 -47
-210 -215 -210 -157 0 -200 41 -200 193 l0 82 85 0 85 0 0 -64 c0 -89 9 -126
30 -126 10 0 23 7 30 15 14 17 15 137 0 164 -5 10 -57 76 -114 146 -88 107
-107 137 -117 180 -25 113 13 223 91 263 38 20 57 23 127 20 63 -2 88 -8 109
-24z m-2068 -131 l3 -143 -50 0 -50 0 0 76 c0 81 -17 124 -49 124 -16 0 -17
-24 -17 -333 0 -182 4 -338 8 -344 5 -7 17 -13 28 -13 16 0 19 -7 19 -40 l0
-40 -145 0 -145 0 0 40 c0 33 4 40 19 40 10 0 22 7 25 16 3 9 6 166 6 350 l0
334 -24 -11 c-34 -16 -46 -50 -46 -129 l0 -70 -45 0 -45 0 0 143 0 144 253 -1
252 -1 3 -142z m469 120 c59 -43 68 -66 71 -184 4 -118 -6 -162 -40 -180 -19
-10 -19 -12 11 -43 42 -43 51 -81 51 -211 0 -115 6 -135 43 -135 15 0 18 -6
15 -37 l-3 -38 -62 -3 c-77 -4 -126 16 -153 60 -17 29 -20 50 -20 171 0 124
-2 139 -20 157 -11 11 -31 20 -45 20 l-25 0 0 -205 0 -206 -117 3 -118 3 -2
38 c-1 30 2 37 18 37 10 0 23 9 29 19 12 23 14 639 2 657 -4 6 -17 14 -29 18
-18 6 -23 15 -23 40 0 18 3 36 8 40 4 4 92 6 195 3 167 -3 191 -6 214 -24z
m838 17 l51 0 90 -202 89 -203 3 208 2 207 68 0 c37 0 73 -4 80 -9 16 -10 12
-77 -5 -74 -29 6 -33 -27 -34 -286 0 -146 -4 -261 -9 -261 -5 0 -4 -13 1 -29
6 -17 9 -67 7 -113 l-3 -83 -56 -3 -56 -3 -83 188 c-46 103 -90 204 -99 223
-15 33 -16 25 -19 -188 l-2 -222 -90 0 -90 0 0 40 c0 35 3 40 24 40 13 0 28 6
34 13 15 18 18 602 3 640 -6 17 -23 32 -40 38 -24 8 -28 15 -28 42 2 42 13 49
66 42 24 -3 67 -5 96 -5z m644 -157 c-1 -42 -3 -51 -8 -33 -4 14 -7 34 -6 45
2 11 3 26 4 33 0 6 3 12 6 12 3 0 5 -26 4 -57z m10 -530 c1 -17 -3 -35 -9 -38
-6 -4 -10 17 -9 57 1 47 3 57 9 38 4 -14 8 -39 9 -57z"/>
<path d="M4908 938 c-47 -12 -103 -73 -120 -130 -17 -59 -18 -507 0 -564 25
-84 78 -133 160 -148 29 -5 32 -3 32 20 0 15 -10 34 -22 44 -23 18 -23 20 -26
353 l-3 335 26 30 c29 35 34 73 8 71 -10 -1 -35 -6 -55 -11z"/>
<path d="M5010 930 c0 -12 11 -35 25 -52 l25 -30 0 -329 0 -330 -25 -25 c-14
-14 -25 -36 -25 -49 0 -22 3 -24 33 -18 82 15 128 54 157 133 18 47 26 469 11
541 -24 109 -70 160 -158 174 -40 6 -43 5 -43 -15z"/>
<path d="M4991 917 c0 -16 -10 -36 -21 -45 -19 -16 -20 -30 -20 -351 l-1 -334
23 -22 23 -22 28 28 27 29 0 320 0 321 -24 24 c-14 14 -27 37 -29 52 l-4 28
-2 -28z m29 -392 c0 -259 -2 -315 -14 -324 -31 -26 -36 21 -36 318 0 298 6
355 35 331 13 -11 15 -61 15 -325z"/>
<path d="M5988 940 c-46 -14 -85 -48 -102 -90 -20 -51 -21 -159 -1 -207 8 -19
58 -87 111 -150 52 -62 102 -129 110 -148 21 -52 18 -137 -6 -168 -11 -14 -20
-39 -20 -55 0 -30 1 -31 38 -25 103 15 143 70 143 196 0 44 -6 90 -15 111 -8
19 -58 87 -110 149 -105 126 -126 164 -126 231 0 46 17 96 32 96 4 0 8 16 8
35 0 38 -9 41 -62 25z"/>
<path d="M6090 916 c0 -19 5 -38 10 -41 6 -3 10 -44 10 -91 l0 -84 66 0 66 0
-3 84 c-4 78 -6 87 -33 115 -25 26 -78 51 -108 51 -5 0 -8 -15 -8 -34z"/>
<path d="M5880 262 c0 -119 25 -152 128 -165 41 -5 42 -5 42 25 0 16 -7 36
-15 44 -11 11 -15 38 -15 100 l0 84 -70 0 -70 0 0 -88z"/>
<path d="M3620 800 l0 -130 35 0 35 0 0 79 c0 75 2 81 30 109 17 17 30 40 30
51 0 19 -6 21 -65 21 l-65 0 0 -130z"/>
<path d="M3780 561 c0 -203 -3 -376 -6 -385 -3 -9 -15 -16 -25 -16 -14 0 -19
-7 -19 -25 l0 -25 130 0 c128 0 130 0 130 23 0 14 -9 26 -22 32 l-23 10 -3
378 -2 377 -80 0 -80 0 0 -369z"/>
<path d="M3970 908 c0 -12 14 -33 32 -49 31 -25 33 -30 36 -108 l4 -81 29 0
29 0 0 130 0 130 -65 0 c-60 0 -65 -2 -65 -22z"/>
<path d="M4190 905 c0 -15 6 -25 15 -25 32 0 35 -37 33 -372 l-3 -333 -22 -10
c-14 -6 -23 -18 -23 -32 0 -22 3 -23 105 -23 l105 0 0 410 0 410 -105 0 -105
0 0 -25z"/>
<path d="M4430 906 c0 -16 6 -26 14 -26 8 0 24 -12 35 -26 18 -23 21 -41 21
-135 0 -96 -2 -111 -20 -129 -11 -11 -27 -20 -35 -20 -10 0 -15 -10 -15 -29 0
-24 5 -29 30 -35 48 -9 60 -51 60 -206 l0 -132 29 -29 c27 -27 35 -29 100 -29
69 0 71 1 71 25 0 15 -6 25 -14 25 -32 0 -41 32 -46 171 -5 136 -5 138 -34
168 -16 17 -39 34 -50 37 -17 6 -16 9 17 25 43 22 57 61 57 157 0 87 -17 145
-51 178 -26 24 -39 29 -99 32 -70 4 -70 4 -70 -22z"/>
<path d="M4410 724 c0 -136 1 -144 19 -144 42 0 51 25 51 144 0 119 -3 128
-47 139 l-23 5 0 -144z m50 1 c0 -44 -5 -87 -10 -95 -7 -10 -10 20 -10 95 0
75 3 105 10 95 5 -8 10 -51 10 -95z"/>
<path d="M5280 906 c0 -16 7 -26 23 -30 18 -4 50 -70 188 -383 l165 -378 47
-3 47 -3 0 87 0 87 -142 324 -143 323 -92 0 c-91 0 -93 0 -93 -24z"/>
<path d="M5670 738 l0 -193 37 -89 38 -88 3 240 2 241 25 19 c14 11 25 29 25
41 0 19 -6 21 -65 21 l-65 0 0 -192z"/>
<path d="M5361 455 c-1 -267 -6 -295 -52 -295 -14 0 -19 -7 -19 -25 0 -24 2
-25 76 -25 l75 0 -3 222 -3 223 -37 75 -37 75 0 -250z"/>
<path d="M900 910 l0 -70 31 0 c27 0 30 -3 26 -22 -4 -13 -34 -149 -67 -303
-34 -154 -63 -288 -66 -297 -4 -12 -15 -18 -35 -18 l-29 0 0 -65 0 -65 73 -1
c39 0 82 -2 94 -3 24 -3 28 3 39 69 10 62 19 73 61 73 64 1 71 -4 84 -66 7
-31 16 -61 20 -66 4 -5 63 -8 131 -8 l123 1 3 65 3 66 -31 0 c-16 0 -30 2 -30
4 0 4 -28 131 -136 626 -14 63 -27 123 -30 133 -5 15 -20 17 -135 17 l-129 0
0 -70z m235 31 c3 -6 42 -176 86 -378 45 -202 86 -374 91 -380 6 -7 19 -13 29
-13 15 0 19 -8 19 -40 l0 -40 -104 0 -105 0 -11 58 c-6 31 -13 63 -15 70 -4 9
-27 12 -87 10 l-82 -3 -14 -67 -15 -68 -68 0 -69 0 0 39 c0 33 4 40 22 43 12
2 28 14 35 28 7 14 40 156 74 315 35 160 66 292 69 295 4 3 4 15 -1 28 -6 15
-17 22 -34 22 -23 0 -25 4 -25 45 l0 45 99 0 c55 0 102 -4 106 -9z"/>
<path d="M940 905 c0 -14 6 -25 13 -25 39 0 47 -25 127 -390 44 -201 80 -368
80 -372 0 -5 43 -8 95 -8 94 0 95 0 95 24 0 18 -6 25 -22 28 -13 2 -28 14 -34
28 -7 14 -47 186 -90 383 l-78 357 -93 0 c-93 0 -93 0 -93 -25z"/>
<path d="M926 473 c-32 -148 -64 -278 -72 -290 -8 -13 -23 -23 -34 -23 -15 0
-20 -7 -20 -25 0 -24 3 -25 59 -25 l58 0 54 248 54 247 -14 68 c-8 37 -17 67
-21 67 -3 0 -32 -120 -64 -267z"/>
<path d="M1038 585 c-3 -6 -14 -48 -23 -94 -9 -47 -19 -91 -22 -98 -4 -10 8
-13 46 -13 48 0 51 1 46 23 -3 12 -14 60 -23 107 -10 46 -21 80 -24 75z m8
-172 c-11 -11 -19 6 -11 24 8 17 8 17 12 0 3 -10 2 -21 -1 -24z"/>
<path d="M991 310 c-6 -28 -11 -55 -11 -60 0 -6 27 -10 60 -10 67 0 68 1 49
76 -11 42 -13 44 -49 44 -38 0 -38 -1 -49 -50z"/>
<path d="M2380 911 c0 -68 1 -70 27 -73 19 -2 28 -10 32 -28 3 -14 5 -157 3
-317 l-3 -293 -30 0 -29 0 0 -64 0 -65 115 -3 c70 -2 117 1 119 7 3 7 5 7 5 0
1 -15 613 -8 622 7 4 6 10 31 14 56 10 70 12 72 64 72 25 0 51 -4 58 -8 6 -4
17 -35 23 -70 l13 -62 133 0 134 0 0 65 0 65 -30 0 c-25 0 -30 5 -39 38 -12
44 -161 728 -161 736 0 3 -58 6 -130 6 l-130 0 0 -70 0 -70 31 0 c26 0 29 -3
24 -20 -4 -11 -35 -151 -70 -312 -35 -160 -68 -295 -73 -300 -5 -5 -29 -8 -53
-6 l-44 3 -3 318 -2 317 30 0 30 0 0 70 0 71 -127 -3 -128 -3 -39 -167 c-22
-93 -43 -168 -46 -168 -3 0 -23 75 -45 168 l-40 167 -128 3 -127 3 0 -70z
m238 7 c5 -18 28 -117 53 -220 24 -104 46 -188 49 -188 3 0 28 93 55 208 27
114 53 212 57 219 6 8 40 11 101 10 l92 -2 0 -39 c0 -31 -4 -40 -19 -42 -10
-1 -23 -9 -27 -16 -13 -19 -11 -635 1 -659 6 -10 20 -19 30 -19 17 0 20 -7 20
-40 l0 -40 -115 0 -115 0 -1 118 c0 94 -2 112 -11 92 -6 -14 -12 -34 -13 -45
-1 -11 -9 -53 -19 -92 l-18 -73 -48 0 -48 0 -30 123 -30 122 -1 -122 -1 -123
-85 0 -85 0 0 40 c0 36 3 40 24 40 14 0 27 4 30 8 3 5 6 150 7 324 1 329 -2
358 -41 358 -17 0 -20 7 -20 43 l0 43 99 2 100 3 9 -33z m814 -8 c86 -403 159
-714 168 -725 7 -8 21 -15 31 -15 15 0 19 -8 19 -40 l0 -40 -104 0 c-91 0
-105 2 -109 18 -3 9 -11 41 -17 70 l-12 52 -82 0 -83 0 -14 -67 -14 -68 -67
-3 -68 -3 0 41 c0 33 3 40 20 40 10 0 24 9 29 19 11 19 143 599 145 635 1 18
-12 29 -46 40 -13 4 -18 16 -18 39 0 19 3 37 7 41 5 4 53 6 107 4 l100 -3 8
-35z"/>
<path d="M2420 905 c0 -15 6 -25 15 -25 28 0 43 -46 110 -325 36 -154 76 -317
87 -362 l20 -83 38 0 38 0 17 73 17 72 -72 300 c-39 165 -75 317 -81 338 l-10
37 -89 0 c-89 0 -90 0 -90 -25z"/>
<path d="M2835 908 c-3 -13 -25 -107 -50 -210 -25 -103 -45 -198 -45 -210 0
-13 9 -54 18 -93 l18 -70 15 35 c13 33 14 27 17 -107 l3 -143 99 0 c97 0 100
1 100 23 0 14 -9 26 -22 32 l-23 10 -3 325 c-1 179 0 335 3 347 3 12 14 25 25
28 13 4 20 15 20 31 0 24 -2 24 -85 24 -80 0 -85 -1 -90 -22z"/>
<path d="M2491 417 c-1 -129 -5 -226 -11 -238 -6 -11 -21 -19 -35 -19 -20 0
-25 -5 -25 -25 0 -24 2 -25 75 -25 l75 0 0 108 c-1 90 -7 132 -39 262 l-39
155 -1 -218z"/>
<path d="M3230 906 c0 -17 7 -26 24 -30 32 -8 32 -8 116 -401 39 -181 74 -338
76 -347 5 -16 18 -18 100 -18 94 0 94 0 94 25 0 18 -5 25 -20 25 -11 0 -26 10
-34 23 -8 12 -50 184 -93 382 l-79 360 -92 3 c-92 3 -92 3 -92 -22z"/>
<path d="M3212 474 c-34 -158 -67 -293 -73 -301 -6 -7 -20 -13 -30 -13 -14 0
-19 -7 -19 -25 0 -25 2 -26 57 -23 l58 3 52 235 c56 245 58 278 30 373 -11 37
-15 26 -75 -249z"/>
<path d="M3306 507 c-10 -45 -20 -92 -23 -104 -5 -22 -2 -23 44 -23 l50 0 -23
101 c-12 55 -24 103 -27 105 -2 2 -11 -33 -21 -79z m34 -84 c0 -7 -6 -13 -14
-13 -9 0 -12 8 -8 26 3 19 7 22 13 12 5 -7 9 -19 9 -25z"/>
<path d="M3281 323 c-22 -91 -27 -83 46 -83 63 0 65 1 60 23 -3 12 -9 39 -12
60 -7 35 -9 37 -46 37 -36 0 -39 -2 -48 -37z"/>
</g>
</svg>
